<?xml version="1.0" standalone="no"?>
<!DOCTYPE svg PUBLIC "-//W3C//DTD SVG 20010904//EN"
 "http://www.w3.org/TR/2001/REC-SVG-20010904/DTD/svg10.dtd">
<svg version="1.0" xmlns="http://www.w3.org/2000/svg"
 width="260.000000pt" height="260.000000pt" viewBox="0 0 260.000000 260.000000"
 preserveAspectRatio="xMidYMid meet">
<metadata>
Created by potrace 1.14, written by Peter Selinger 2001-2017
</metadata>
<g transform="translate(0.000000,260.000000) scale(0.100000,-0.100000)"
fill="#000000" stroke="none">
<path d="M820 2182 c0 -21 -118 -181 -175 -237 -69 -69 -165 -142 -217 -164
-84 -36 -198 -189 -239 -323 -34 -108 -20 -267 33 -372 86 -172 274 -286 498
-302 161 -12 307 25 622 157 321 135 473 178 629 177 161 0 336 -62 493 -175
33 -24 62 -41 64 -38 7 7 -40 71 -90 126 -179 194 -357 279 -573 273 -158 -4
-243 -25 -455 -111 -266 -109 -404 -133 -535 -92 -100 31 -208 126 -208 184 0
31 9 41 44 50 21 5 38 -3 95 -49 117 -95 204 -112 330 -65 71 27 84 44 44 57
-54 19 -119 72 -147 119 -15 26 -37 86 -49 133 -30 115 -36 128 -83 182 l-42
47 21 21 c30 30 90 127 102 164 13 43 20 106 10 106 -4 0 -20 -18 -37 -40 -37
-51 -151 -164 -190 -190 -36 -24 -53 -15 -27 14 32 36 58 88 75 151 19 71 28
178 16 197 -7 11 -9 11 -9 0z"/>
</g>
</svg>
